<svg xmlns="http://www.w3.org/2000/svg" viewBox="0 0 596.16 613.44">
  <path d="M448.08 210.6l82.3 114 1.94 2.69h47.5l9.26 55.11-151.93 97.06-3.86 2.47 1 4.46 10.85 46.48-63.06-50.84-1.78-1.43h-168l-1.42.75-108.5 57.21 5.67-81.27.11-1.56-.62-1.44-38.88-90.72-1.39-3.24-3.47-.6-47.32-8.14 39.1-27.7.45-.32.39-.39L169 210.6h279.08m3.31-6.48H166.32L51.84 318.6 0 355.32l62.64 10.8 38.88 90.72-6.44 92.88 118.8-62.64H378l77.76 62.64-15.12-64.8 155.52-99.36-10.8-64.8h-49.68l-84.24-116.64z"/>
  <path d="M486.99 258.49l-70.11 73.07-110.16 45.36 30.24-168.48M560.2 403.36L532.44 324m-144.41 19.44l47.21 140.4m-56.16-2.16l49.68-17.28m-327.24-9.72l112.32 28.08-45.36-276.48M68.04 367.2l-11.88-46.44" stroke-width="2.16" fill="none" stroke="#000" stroke-miterlimit="10"/>
  <path fill="none" stroke-width="6.5" stroke="#000" d="M286.2 207.36V95.04h42.43"/>
  <circle cx="328.02" cy="95.04" r="12.18"/>
  <path fill="none" stroke-width="6.5" stroke="#000" d="M264.24 206.28V56.16h-49.32V11.57"/>
  <circle cx="214.92" cy="12.18" r="12.18"/>
  <path fill="none" stroke-width="6.5" stroke="#000" d="M115.56 259.2H37.8v-57.55"/>
  <circle cx="37.8" cy="202.26" r="12.18"/>
  <path fill="none" stroke-width="6.5" stroke="#000" d="M298.08 487.08v70.2h33.48v44.59"/>
  <circle cx="331.56" cy="601.26" r="12.18"/>
  <path fill="none" stroke-width="6.5" stroke="#000" d="M264.6 481.68v51.84h-34.56v25.15"/>
  <circle cx="230.04" cy="558.06" r="12.18"/>
  <path fill="none" stroke-width="6.5" stroke="#000" d="M91.54 423.47H22.68v40.16"/>
  <circle cx="22.68" cy="463.02" r="12.18"/>
</svg>
